<svg xmlns="http://www.w3.org/2000/svg" width="340" height="200" viewBox="0 0 340 200"><style>* {
          font-family: 'Segoe UI', Ubuntu, "Helvetica Neue", Sans-Serif
        }</style><g class="gpsc-root"><rect x="1" y="1" rx="5" ry="5" height="99%" width="99.41176470588235%" stroke="#141321" stroke-width="1" fill="#141321" stroke-opacity="1"></rect><text x="30" y="40" class="gpsc-item" style="--gpsc-i: 0; font-size: 22px; fill: #fe428e;">Top Languages by Commit</text><g transform="translate(0,40)"><g transform="translate(40,0)"><rect y="18" width="14" height="14" class="gpsc-item" style="--gpsc-i: 0; stroke-width: 1px;" fill="#f34b7d" stroke="#141321"></rect><rect y="43.2" width="14" height="14" class="gpsc-item" style="--gpsc-i: 1; stroke-width: 1px;" fill="#3178c6" stroke="#141321"></rect><rect y="68.4" width="14" height="14" class="gpsc-item" style="--gpsc-i: 2; stroke-width: 1px;" fill="#7355dd" stroke="#141321"></rect><rect y="93.60000000000002" width="14" height="14" class="gpsc-item" style="--gpsc-i: 3; stroke-width: 1px;" fill="#ff5a03" stroke="#141321"></rect><rect y="118.80000000000001" width="14" height="14" class="gpsc-item" style="--gpsc-i: 4; stroke-width: 1px;" fill="#f1e05a" stroke="#141321"></rect><text x="16.8" y="30" class="gpsc-item" style="--gpsc-i: 0; fill: #a9fef7; font-size: 14px;">C++</text><text x="16.8" y="55.2" class="gpsc-item" style="--gpsc-i: 1; fill: #a9fef7; font-size: 14px;">TypeScript</text><text x="16.8" y="80.4" class="gpsc-item" style="--gpsc-i: 2; fill: #a9fef7; font-size: 14px;">C#</text><text x="16.8" y="105.60000000000002" class="gpsc-item" style="--gpsc-i: 3; fill: #a9fef7; font-size: 14px;">Astro</text><text x="16.8" y="130.8" class="gpsc-item" style="--gpsc-i: 4; fill: #a9fef7; font-size: 14px;">JavaScript</text></g><g transform="translate( 230, 80 )"><g class="arc" style="--gpsc-i: 0;"><path d="M3.67394039744206e-15,-60A60,60,0,1,1,-0.7253638110718801,59.995615234295144L-0.42312888979193003,34.9974422200055A35,35,0,1,0,2.1431318985078682e-15,-35Z" style="fill: #f34b7d; stroke-width: 2px;" stroke="#141321"></path></g><g class="arc" style="--gpsc-i: 1;"><path d="M-0.7253638110718801,59.995615234295144A60,60,0,0,1,-59.9881658517431,-1.1916197983263332L-34.99309674685014,-0.6951115490236944A35,35,0,0,0,-0.42312888979193003,34.9974422200055Z" style="fill: #3178c6; stroke-width: 2px;" stroke="#141321"></path></g><g class="arc" style="--gpsc-i: 2;"><path d="M-59.9881658517431,-1.1916197983263332A60,60,0,0,1,-29.89523937222704,-52.02186716062051L-17.438889633799107,-30.34608917702863A35,35,0,0,0,-34.99309674685014,-0.6951115490236944Z" style="fill: #7355dd; stroke-width: 2px;" stroke="#141321"></path></g><g class="arc" style="--gpsc-i: 3;"><path d="M-29.89523937222704,-52.02186716062051A60,60,0,0,1,-8.674075493536112,-59.36969272560232L-5.0598773712293985,-34.63232075660135A35,35,0,0,0,-17.438889633799107,-30.34608917702863Z" style="fill: #ff5a03; stroke-width: 2px;" stroke="#141321"></path></g><g class="arc" style="--gpsc-i: 4;"><path d="M-8.674075493536112,-59.36969272560232A60,60,0,0,1,4.226888398968133e-14,-60L2.4656848993980778e-14,-35A35,35,0,0,0,-5.0598773712293985,-34.63232075660135Z" style="fill: #f1e05a; stroke-width: 2px;" stroke="#141321"></path></g></g></g></g></svg>