<svg xmlns="http://www.w3.org/2000/svg" width="340" height="200" viewBox="0 0 340 200"><style>* {
          font-family: 'Segoe UI', Ubuntu, "Helvetica Neue", Sans-Serif
        }</style><g class="gpsc-root"><rect x="1" y="1" rx="5" ry="5" height="99%" width="99.41176470588235%" stroke="#141321" stroke-width="1" fill="#141321" stroke-opacity="1"></rect><text x="30" y="40" class="gpsc-item" style="--gpsc-i: 0; font-size: 22px; fill: #fe428e;">Top Languages by Commit</text><g transform="translate(0,40)"><g transform="translate(40,0)"><rect y="18" width="14" height="14" class="gpsc-item" style="--gpsc-i: 0; stroke-width: 1px;" fill="#f34b7d" stroke="#141321"></rect><rect y="43.2" width="14" height="14" class="gpsc-item" style="--gpsc-i: 1; stroke-width: 1px;" fill="#3178c6" stroke="#141321"></rect><rect y="68.4" width="14" height="14" class="gpsc-item" style="--gpsc-i: 2; stroke-width: 1px;" fill="#7355dd" stroke="#141321"></rect><rect y="93.60000000000002" width="14" height="14" class="gpsc-item" style="--gpsc-i: 3; stroke-width: 1px;" fill="#ff5a03" stroke="#141321"></rect><rect y="118.80000000000001" width="14" height="14" class="gpsc-item" style="--gpsc-i: 4; stroke-width: 1px;" fill="#f1e05a" stroke="#141321"></rect><text x="16.8" y="30" class="gpsc-item" style="--gpsc-i: 0; fill: #a9fef7; font-size: 14px;">C++</text><text x="16.8" y="55.2" class="gpsc-item" style="--gpsc-i: 1; fill: #a9fef7; font-size: 14px;">TypeScript</text><text x="16.8" y="80.4" class="gpsc-item" style="--gpsc-i: 2; fill: #a9fef7; font-size: 14px;">C#</text><text x="16.8" y="105.60000000000002" class="gpsc-item" style="--gpsc-i: 3; fill: #a9fef7; font-size: 14px;">Astro</text><text x="16.8" y="130.8" class="gpsc-item" style="--gpsc-i: 4; fill: #a9fef7; font-size: 14px;">JavaScript</text></g><g transform="translate( 230, 80 )"><g class="arc" style="--gpsc-i: 0;"><path d="M3.67394039744206e-15,-60A60,60,0,0,1,8.33843192560903,59.41776294191817L4.8640852899386005,34.66036171611893A35,35,0,0,0,2.1431318985078682e-15,-35Z" style="fill: #f34b7d; stroke-width: 2px;" stroke="#141321"></path></g><g class="arc" style="--gpsc-i: 1;"><path d="M8.33843192560903,59.41776294191817A60,60,0,0,1,-59.908523121961565,3.3119265307969523L-34.946638487810915,1.931957142964889A35,35,0,0,0,4.8640852899386005,34.66036171611893Z" style="fill: #3178c6; stroke-width: 2px;" stroke="#141321"></path></g><g class="arc" style="--gpsc-i: 2;"><path d="M-59.908523121961565,3.3119265307969523A60,60,0,0,1,-31.199249174957895,-51.250432690065054L-18.199562018725437,-29.89608573587128A35,35,0,0,0,-34.946638487810915,1.931957142964889Z" style="fill: #7355dd; stroke-width: 2px;" stroke="#141321"></path></g><g class="arc" style="--gpsc-i: 3;"><path d="M-31.199249174957895,-51.250432690065054A60,60,0,0,1,-9.090862912398839,-59.307303188629064L-5.303003365565989,-34.59592686003362A35,35,0,0,0,-18.199562018725437,-29.89608573587128Z" style="fill: #ff5a03; stroke-width: 2px;" stroke="#141321"></path></g><g class="arc" style="--gpsc-i: 4;"><path d="M-9.090862912398839,-59.307303188629064A60,60,0,0,1,-1.1021821192326178e-14,-60L-6.429395695523604e-15,-35A35,35,0,0,0,-5.303003365565989,-34.59592686003362Z" style="fill: #f1e05a; stroke-width: 2px;" stroke="#141321"></path></g></g></g></g></svg>